<svg width="24" height="24" viewBox="0 0 24 24" fill="none" xmlns="http://www.w3.org/2000/svg">
<path d="M22.58 7.35001L12.475 1.89701C12.178 1.73701 11.821 1.73701 11.525 1.89701L1.42502 7.35001C0.939018 7.61401 0.758018 8.22001 1.02002 8.70601C1.20002 9.04101 1.54502 9.23101 1.90002 9.23101C2.06002 9.23101 2.22402 9.19301 2.37502 9.11101L3.10902 8.71501L4.69902 19.965C4.91502 21.179 6.00902 22.027 7.35902 22.027H16.641C17.991 22.027 19.085 21.179 19.303 19.939L20.891 8.71401L21.628 9.11201C22.113 9.37501 22.72 9.19401 22.982 8.70801C23.245 8.22201 23.062 7.61501 22.578 7.35301L22.58 7.35001ZM12 15.435C10.205 15.435 8.75002 13.98 8.75002 12.185C8.75002 10.39 10.205 8.93501 12 8.93501C13.795 8.93501 15.25 10.39 15.25 12.185C15.25 13.98 13.795 15.435 12 15.435Z" fill="white"/>
</svg>
